<?xml version="1.0" encoding="UTF-8"?>
<svg id="Layer_1" xmlns="http://www.w3.org/2000/svg" version="1.1" viewBox="0 0 1289.03 347.23">
  <!-- Generator: Adobe Illustrator 30.2.1, SVG Export Plug-In . SVG Version: 2.1.1 Build 1)  -->
  <defs>
    <style>
      .st0 {
        fill: #021d49;
      }
    </style>
  </defs>
  <g>
    <g>
      <circle class="st0" cx="539.68" cy="143.38" r="8.91"/>
      <path class="st0" d="M514.79,226.85c-18.5,0-33.56-15.05-33.56-33.56l-.02-16.82c0-14.55-11.83-26.38-26.37-26.38-7.04,0-13.66,2.74-18.64,7.72-3.03,3.03-7.94,3.03-10.97,0-3.03-3.03-3.03-7.94,0-10.97,7.91-7.91,18.43-12.27,29.61-12.27,23.09,0,41.88,18.79,41.88,41.88l.02,16.82c0,9.96,8.1,18.06,18.05,18.06s18.04-8.1,18.04-18.04v-20.86c0-4.28,3.47-7.76,7.76-7.76s7.76,3.47,7.76,7.76v20.86c0,18.5-15.05,33.55-33.55,33.55Z"/>
      <circle class="st0" cx="370.86" cy="177.88" r="8.91"/>
      <path class="st0" d="M405.25,227.51c-4.28,0-7.76-3.47-7.76-7.76v-44.02c0-14.68-11.95-26.63-26.63-26.63s-26.63,11.95-26.63,26.63l-.03,43.99c0,4.28-3.47,7.75-7.76,7.75h0c-4.28,0-7.75-3.48-7.75-7.76l.03-43.98c0-23.23,18.9-42.14,42.14-42.14s42.14,18.9,42.14,42.14v44.02c0,4.28-3.47,7.76-7.76,7.76Z"/>
    </g>
    <path class="st0" d="M577.97,226.93c-1.04,0-2.08-.17-3.09-.52-3.78-1.32-6.32-4.89-6.32-8.9v-73.64c0-4.45,3.61-8.06,8.06-8.06s8.06,3.61,8.06,8.06v54.34l47.05-55.38c2.76-3.49,7.83-4.09,11.33-1.33,3.49,2.76,4.09,7.83,1.33,11.33l-59.02,70.52c-1.83,2.3-4.58,3.57-7.4,3.57Z"/>
    <path class="st0" d="M641.75,226.46c-2.07,0-4.14-.82-5.66-2.46l-15.25-16.29c-2.93-3.13-2.76-8.03.36-10.96,3.13-2.92,8.04-2.76,10.96.36l15.25,16.29c2.93,3.13,2.76,8.03-.36,10.96-1.5,1.4-3.4,2.09-5.3,2.09Z"/>
    <g>
      <g>
        <path class="st0" d="M684.19,192.75h-2.83v-10.06l-4.69,8.01-4.51-8.08v10.14h-2.83v-15.07h3.26l4.13,7.48,4.32-7.48h3.15v15.07Z"/>
        <path class="st0" d="M700.78,177.67v8.18c0,1.01-.15,1.94-.45,2.81-.3.87-.73,1.62-1.29,2.27-.57.65-1.25,1.16-2.07,1.53s-1.74.56-2.78.56-1.94-.18-2.76-.55c-.82-.36-1.52-.86-2.09-1.5-.58-.63-1.02-1.38-1.33-2.24-.31-.86-.47-1.79-.47-2.78v-8.27h2.89v8.29c0,.58.08,1.12.24,1.63.16.51.4.95.71,1.33.31.38.7.68,1.16.89.47.22,1,.33,1.59.33.63,0,1.18-.1,1.65-.31.47-.21.85-.5,1.16-.87.3-.37.53-.81.69-1.31.15-.5.23-1.06.23-1.66v-8.33h2.92ZM695.44,172.72l-2.76,3.62h-1.92l1.55-3.62h3.13ZM699.51,172.72l-2.76,3.62h-1.92l1.55-3.62h3.13Z"/>
        <path class="st0" d="M713.89,188.79c0,.57-.12,1.1-.36,1.61-.24.51-.58.96-1.01,1.35-.43.39-.95.7-1.55.93-.6.23-1.25.35-1.97.35-.65,0-1.23-.04-1.74-.11s-1-.19-1.45-.36c-.45-.16-.89-.37-1.3-.63-.42-.26-.85-.57-1.29-.93l2.05-2.09c.6.5,1.18.86,1.75,1.06.57.21,1.19.31,1.86.31.27,0,.53-.04.77-.12.24-.08.45-.19.63-.33.18-.14.32-.3.43-.49.11-.19.16-.4.16-.62,0-.24-.04-.45-.13-.64s-.24-.37-.47-.55-.53-.36-.93-.54c-.4-.18-.91-.39-1.53-.61-.55-.2-1.07-.43-1.57-.69-.5-.26-.94-.57-1.32-.93-.38-.36-.68-.79-.91-1.28-.23-.49-.34-1.07-.34-1.73s.13-1.23.38-1.77c.26-.54.6-1,1.04-1.39.44-.38.96-.68,1.55-.9.59-.21,1.23-.32,1.91-.32,1.14,0,2.1.15,2.89.45.78.3,1.48.74,2.09,1.32l-2.01,2.05c-.37-.36-.79-.64-1.25-.84-.46-.19-1-.29-1.62-.29-.29,0-.55.04-.79.13-.24.09-.45.2-.62.35-.17.14-.31.31-.42.51-.11.2-.16.4-.16.61,0,.24.05.46.15.65.1.2.27.38.5.57.24.18.55.36.94.55.39.18.88.38,1.46.59.75.26,1.38.55,1.92.87.53.31.97.66,1.3,1.04.34.38.58.8.74,1.27.16.47.24,1,.24,1.59Z"/>
        <path class="st0" d="M728.12,177.67l-7.21,12.19h7.15v2.88h-12.12l7.38-12.47-7.1.02v-2.62h11.9Z"/>
        <path class="st0" d="M745.95,192.75h-3.17l-1.38-3.01h-7.23l-1.4,3.01h-3.17l7.04-15.07h2.25l7.04,15.07ZM740.26,187.3l-2.48-5.43-2.51,5.43h4.99Z"/>
        <path class="st0" d="M760.79,192.75h-3.76l-5.96-6.67v6.67h-2.89v-15.07h2.89v6.73l6.09-6.73h3.43l-6.72,7.41,6.93,7.67Z"/>
        <path class="st0" d="M765.72,192.75h-2.89v-15.06h2.89v15.06Z"/>
        <path class="st0" d="M785.71,192.75h-9.83v-15.06h9.83v2.41h-7v3.6h6.91v2.36h-6.91v4.15h7v2.54ZM784.01,172.7l-2.68,3.64h-1.97l1.68-3.64h2.98Z"/>
        <path class="st0" d="M798.63,188.79c0,.57-.12,1.1-.36,1.61-.24.51-.58.96-1.01,1.35-.43.39-.95.7-1.55.93-.6.23-1.25.35-1.97.35-.65,0-1.23-.04-1.74-.11s-1-.19-1.45-.36c-.45-.16-.89-.37-1.3-.63-.42-.26-.85-.57-1.29-.93l2.05-2.09c.6.5,1.18.86,1.75,1.06.57.21,1.19.31,1.86.31.27,0,.53-.04.77-.12.24-.08.45-.19.63-.33.18-.14.32-.3.43-.49.11-.19.16-.4.16-.62,0-.24-.04-.45-.13-.64s-.24-.37-.47-.55-.53-.36-.93-.54c-.4-.18-.91-.39-1.53-.61-.55-.2-1.07-.43-1.57-.69-.5-.26-.94-.57-1.32-.93-.38-.36-.68-.79-.91-1.28-.23-.49-.34-1.07-.34-1.73s.13-1.23.38-1.77c.26-.54.6-1,1.04-1.39.44-.38.96-.68,1.55-.9.59-.21,1.23-.32,1.91-.32,1.14,0,2.1.15,2.89.45.78.3,1.48.74,2.09,1.32l-2.01,2.05c-.37-.36-.79-.64-1.25-.84-.46-.19-1-.29-1.62-.29-.29,0-.55.04-.79.13-.24.09-.45.2-.62.35-.17.14-.31.31-.42.51-.11.2-.16.4-.16.61,0,.24.05.46.15.65.1.2.27.38.5.57.24.18.55.36.94.55.39.18.88.38,1.46.59.75.26,1.38.55,1.92.87.53.31.97.66,1.3,1.04.34.38.58.8.74,1.27.16.47.24,1,.24,1.59Z"/>
        <path class="st0" d="M810.92,192.75h-2.89v-15.06h2.89v15.06Z"/>
        <path class="st0" d="M826.85,192.75h-2.83l-6.72-10.57v10.57h-2.83v-15.07h3.24l6.31,9.84v-9.84h2.83v15.07Z"/>
        <path class="st0" d="M840.22,180.2h-7v3.5h6.91v2.37h-6.91v6.67h-2.83v-15.06h9.83v2.51Z"/>
        <path class="st0" d="M858.06,185.21c0,1.08-.21,2.1-.62,3.05-.42.96-.98,1.78-1.7,2.49-.72.7-1.56,1.26-2.51,1.67s-1.97.61-3.05.61-2.1-.2-3.06-.61c-.96-.41-1.8-.96-2.52-1.67-.72-.7-1.29-1.53-1.7-2.48-.42-.95-.62-1.97-.62-3.06s.21-2.12.62-3.07c.42-.95.98-1.78,1.7-2.49.72-.7,1.56-1.26,2.52-1.66.96-.4,1.98-.6,3.06-.6s2.1.2,3.05.6,1.79.96,2.51,1.67c.72.71,1.29,1.54,1.7,2.49.42.95.62,1.97.62,3.06ZM855.17,185.21c0-.69-.13-1.34-.39-1.95s-.62-1.14-1.07-1.6c-.45-.46-.99-.82-1.6-1.09-.61-.27-1.26-.4-1.94-.4s-1.35.13-1.96.4c-.61.27-1.14.63-1.59,1.09-.45.46-.81.99-1.07,1.6s-.39,1.26-.39,1.95.13,1.33.39,1.94c.26.62.62,1.15,1.07,1.61.45.46.99.82,1.59,1.09.61.27,1.26.4,1.96.4s1.33-.13,1.94-.4c.61-.27,1.14-.63,1.6-1.09.45-.46.81-1,1.07-1.61.26-.62.39-1.26.39-1.94Z"/>
        <path class="st0" d="M872.25,192.75h-3.18l-1.06-3.43c-.11-.38-.25-.72-.42-1.04-.17-.31-.37-.58-.6-.81-.24-.23-.52-.4-.85-.53-.33-.13-.72-.19-1.16-.19h-1.08v5.99h-2.85v-15.06l5.87-.02c.63,0,1.22.11,1.77.33.55.22,1.02.52,1.41.91.4.39.71.85.93,1.38.22.53.34,1.1.34,1.71,0,.44-.07.87-.2,1.28-.14.41-.33.8-.57,1.15-.25.35-.54.66-.88.93-.34.27-.71.47-1.12.61.47.18.85.43,1.15.76.3.33.53.73.7,1.2.09.21.17.43.24.64.07.21.15.44.23.67.08.23.17.48.26.75.09.27.19.57.31.9.14.41.26.77.38,1.06.12.3.24.56.38.78ZM868.49,182.21c0-.35-.07-.67-.2-.96-.13-.29-.31-.54-.53-.75-.22-.21-.49-.38-.79-.5-.3-.12-.63-.18-.98-.18h-2.09v4.69h2.09c.35,0,.67-.05.98-.16.3-.11.57-.26.79-.46.22-.2.4-.44.53-.73.13-.28.2-.6.2-.95Z"/>
        <path class="st0" d="M889.65,192.75h-2.83v-10.06l-4.69,8.01-4.51-8.08v10.14h-2.83v-15.07h3.26l4.13,7.48,4.32-7.48h3.15v15.07Z"/>
        <path class="st0" d="M908.22,192.75h-3.17l-1.38-3.01h-7.23l-1.4,3.01h-3.17l7.04-15.07h2.25l7.04,15.07ZM902.54,187.3l-2.48-5.43-2.51,5.43h4.99Z"/>
        <path class="st0" d="M918.25,180.29h-4.12v12.46h-2.92v-12.46h-4.12v-2.6h11.16v2.6Z"/>
        <path class="st0" d="M923.75,192.75h-2.89v-15.06h2.89v15.06Z"/>
        <path class="st0" d="M939.9,192.75h-3.76l-5.96-6.67v6.67h-2.89v-15.07h2.89v6.73l6.09-6.73h3.43l-6.72,7.41,6.93,7.67Z"/>
        <path class="st0" d="M956.97,192.75h-3.17l-1.38-3.01h-7.23l-1.4,3.01h-3.17l7.04-15.07h2.25l7.04,15.07ZM951.29,187.3l-2.48-5.43-2.51,5.43h4.99Z"/>
        <path class="st0" d="M962.1,192.75h-2.89v-15.06h2.89v15.06Z"/>
        <path class="st0" d="M984.85,192.75h-3.76l-5.96-6.67v6.67h-2.89v-15.07h2.89v6.73l6.09-6.73h3.43l-6.72,7.41,6.93,7.67Z"/>
        <path class="st0" d="M1001.93,192.75h-3.17l-1.38-3.01h-7.23l-1.4,3.01h-3.17l7.04-15.07h2.25l7.04,15.07ZM996.25,187.3l-2.48-5.43-2.51,5.43h4.99Z"/>
        <path class="st0" d="M1015.36,192.75h-3.18l-1.06-3.43c-.11-.38-.25-.72-.42-1.04-.17-.31-.37-.58-.6-.81-.24-.23-.52-.4-.85-.53-.33-.13-.72-.19-1.16-.19h-1.08v5.99h-2.85v-15.06l5.87-.02c.63,0,1.22.11,1.77.33.55.22,1.02.52,1.41.91.4.39.71.85.93,1.38.22.53.34,1.1.34,1.71,0,.44-.07.87-.2,1.28-.14.41-.33.8-.57,1.15-.25.35-.54.66-.88.93-.34.27-.71.47-1.12.61.47.18.85.43,1.15.76.3.33.53.73.7,1.2.09.21.17.43.24.64.07.21.15.44.23.67.08.23.17.48.26.75.09.27.19.57.31.9.14.41.26.77.38,1.06.12.3.24.56.38.78ZM1011.6,182.21c0-.35-.07-.67-.2-.96-.13-.29-.31-.54-.53-.75-.22-.21-.49-.38-.79-.5-.3-.12-.63-.18-.98-.18h-2.09v4.69h2.09c.35,0,.67-.05.98-.16.3-.11.57-.26.79-.46.22-.2.4-.44.53-.73.13-.28.2-.6.2-.95Z"/>
      </g>
      <g>
        <path class="st0" d="M680.97,221.32h-2.89v-6.67h-5.87v6.67h-2.89v-15.06h2.89v5.97h5.87v-5.97h2.89v15.06Z"/>
        <path class="st0" d="M699.53,221.32h-3.17l-1.38-3.01h-7.23l-1.4,3.01h-3.17l7.04-15.07h2.25l7.04,15.07ZM693.85,215.87l-2.48-5.43-2.51,5.43h4.99Z"/>
        <path class="st0" d="M711.84,221.32h-10.08v-15.06h2.94v12.23h7.13v2.83Z"/>
        <path class="st0" d="M724.34,221.32h-10.08v-15.06h2.94v12.23h7.13v2.83Z"/>
        <path class="st0" d="M739.48,218.55c-.42.53-.88.98-1.38,1.37-.5.38-1.02.7-1.56.95-.54.25-1.09.44-1.66.56s-1.13.18-1.69.18c-1.1,0-2.14-.2-3.11-.6-.97-.4-1.81-.95-2.53-1.66-.72-.7-1.29-1.53-1.71-2.49-.42-.95-.63-1.98-.63-3.09s.21-2.09.62-3.04c.42-.95.99-1.77,1.71-2.48.73-.7,1.57-1.26,2.54-1.67.97-.41,2.01-.61,3.11-.61,1.28,0,2.44.26,3.49.79,1.05.53,1.94,1.23,2.67,2.11l-1.95,2.02c-.56-.77-1.18-1.32-1.88-1.65-.69-.33-1.47-.5-2.32-.5-.71,0-1.37.13-1.99.4-.62.26-1.16.62-1.63,1.08-.46.46-.83.99-1.1,1.6-.27.61-.4,1.26-.4,1.95s.13,1.36.4,1.97c.27.61.63,1.15,1.1,1.61.46.46,1.01.83,1.63,1.09.62.26,1.28.4,1.99.4.67,0,1.3-.13,1.9-.38.59-.25,1.13-.58,1.6-1v-1.45h-3.05v-2.49h5.83v5.03Z"/>
        <path class="st0" d="M757.21,221.32h-3.17l-1.38-3.01h-7.23l-1.4,3.01h-3.17l7.04-15.07h2.25l7.04,15.07ZM751.53,215.87l-2.48-5.43-2.51,5.43h4.99Z"/>
        <path class="st0" d="M767.25,208.86h-4.12v12.46h-2.92v-12.46h-4.12v-2.6h11.16v2.6Z"/>
        <path class="st0" d="M785.09,213.78c0,1.08-.21,2.1-.62,3.05-.42.95-.98,1.78-1.7,2.49-.72.7-1.56,1.26-2.51,1.67s-1.97.61-3.05.61-2.1-.2-3.06-.61c-.96-.41-1.8-.96-2.52-1.67-.72-.7-1.29-1.53-1.7-2.48-.42-.95-.62-1.97-.62-3.06s.21-2.12.62-3.07c.42-.95.98-1.78,1.7-2.49.72-.7,1.56-1.26,2.52-1.66.96-.4,1.98-.6,3.06-.6s2.1.2,3.05.6c.96.4,1.79.96,2.51,1.67.72.71,1.29,1.54,1.7,2.49.42.95.62,1.97.62,3.06ZM782.21,213.78c0-.69-.13-1.34-.39-1.95s-.62-1.14-1.07-1.6c-.45-.46-.99-.82-1.6-1.09-.61-.27-1.26-.41-1.94-.41s-1.35.14-1.96.41c-.61.27-1.14.63-1.59,1.09-.45.46-.81.99-1.07,1.6s-.39,1.26-.39,1.95.13,1.33.39,1.94c.26.62.62,1.15,1.07,1.61.45.46.99.82,1.59,1.09.61.27,1.26.4,1.96.4s1.33-.13,1.94-.4c.61-.27,1.14-.63,1.6-1.09.45-.46.81-1,1.07-1.61.26-.62.39-1.26.39-1.94ZM780.18,201.27l-2.68,3.64h-1.97l1.67-3.64h2.98Z"/>
        <path class="st0" d="M790.98,221.32h-2.89v-15.06h2.89v15.06Z"/>
        <path class="st0" d="M816.36,213.78c0,1.08-.21,2.1-.62,3.05-.42.95-.98,1.78-1.7,2.49-.72.7-1.56,1.26-2.51,1.67s-1.97.61-3.05.61-2.1-.2-3.06-.61c-.96-.41-1.8-.96-2.52-1.67-.72-.7-1.29-1.53-1.7-2.48-.42-.95-.62-1.97-.62-3.06s.21-2.12.62-3.07c.42-.95.98-1.78,1.7-2.49.72-.7,1.56-1.26,2.52-1.66.96-.4,1.98-.6,3.06-.6s2.1.2,3.05.6c.96.4,1.79.96,2.51,1.67.72.71,1.29,1.54,1.7,2.49.42.95.62,1.97.62,3.06ZM813.48,213.78c0-.69-.13-1.34-.39-1.95s-.62-1.14-1.07-1.6c-.45-.46-.99-.82-1.6-1.09-.61-.27-1.26-.41-1.94-.41s-1.35.14-1.96.41c-.61.27-1.14.63-1.59,1.09-.45.46-.81.99-1.07,1.6s-.39,1.26-.39,1.95.13,1.33.39,1.94c.26.62.62,1.15,1.07,1.61.45.46.99.82,1.59,1.09.61.27,1.26.4,1.96.4s1.33-.13,1.94-.4c.61-.27,1.14-.63,1.6-1.09.45-.46.81-1,1.07-1.61.26-.62.39-1.26.39-1.94ZM807.48,204.91h-2.42v-2.45h2.42v2.45ZM811.76,204.91h-2.42v-2.45h2.42v2.45Z"/>
        <path class="st0" d="M831.75,221.32h-2.83l-6.72-10.57v10.57h-2.83v-15.07h3.24l6.31,9.84v-9.84h2.83v15.07Z"/>
        <path class="st0" d="M847.89,221.32h-3.76l-5.96-6.67v6.67h-2.89v-15.07h2.89v6.73l6.09-6.73h3.43l-6.72,7.41,6.93,7.67Z"/>
        <path class="st0" d="M863.18,213.78c0,1.08-.21,2.1-.62,3.05-.42.95-.98,1.78-1.7,2.49-.72.7-1.56,1.26-2.51,1.67s-1.97.61-3.05.61-2.1-.2-3.06-.61c-.96-.41-1.8-.96-2.52-1.67-.72-.7-1.29-1.53-1.7-2.48-.42-.95-.62-1.97-.62-3.06s.21-2.12.62-3.07c.42-.95.98-1.78,1.7-2.49.72-.7,1.56-1.26,2.52-1.66.96-.4,1.98-.6,3.06-.6s2.1.2,3.05.6c.96.4,1.79.96,2.51,1.67.72.71,1.29,1.54,1.7,2.49.42.95.62,1.97.62,3.06ZM860.3,213.78c0-.69-.13-1.34-.39-1.95s-.62-1.14-1.07-1.6c-.45-.46-.99-.82-1.6-1.09-.61-.27-1.26-.41-1.94-.41s-1.35.14-1.96.41c-.61.27-1.14.63-1.59,1.09-.45.46-.81.99-1.07,1.6s-.39,1.26-.39,1.95.13,1.33.39,1.94c.26.62.62,1.15,1.07,1.61.45.46.99.82,1.59,1.09.61.27,1.26.4,1.96.4s1.33-.13,1.94-.4c.61-.27,1.14-.63,1.6-1.09.45-.46.81-1,1.07-1.61.26-.62.39-1.26.39-1.94Z"/>
        <path class="st0" d="M877.38,221.32h-3.18l-1.06-3.43c-.11-.38-.25-.72-.42-1.04s-.37-.58-.6-.81c-.24-.23-.52-.4-.85-.53-.33-.13-.72-.19-1.16-.19h-1.08v5.99h-2.85v-15.06l5.87-.02c.63,0,1.22.11,1.77.33.55.22,1.02.52,1.41.91.4.39.71.85.93,1.38s.34,1.1.34,1.72c0,.44-.07.87-.2,1.28s-.33.8-.57,1.15c-.25.35-.54.66-.88.93-.34.27-.71.47-1.12.61.47.18.85.43,1.15.76.3.33.53.73.7,1.2.09.21.17.43.24.64.07.21.15.44.23.67.08.23.17.48.26.75.09.27.19.57.31.9.14.41.26.77.38,1.06.12.3.24.56.38.78ZM873.61,210.79c0-.35-.07-.67-.2-.96-.13-.29-.31-.54-.53-.75-.22-.21-.49-.38-.79-.5-.3-.12-.63-.18-.98-.18h-2.09v4.69h2.09c.35,0,.67-.05.98-.16.3-.11.57-.26.79-.46.22-.2.4-.44.53-.73.13-.28.2-.6.2-.95Z"/>
        <path class="st0" d="M894.77,221.32h-2.83v-10.06l-4.69,8.01-4.51-8.08v10.14h-2.83v-15.07h3.26l4.13,7.48,4.32-7.48h3.15v15.07Z"/>
        <path class="st0" d="M913.34,221.32h-3.17l-1.38-3.01h-7.23l-1.4,3.01h-3.17l7.04-15.07h2.25l7.04,15.07ZM907.66,215.87l-2.48-5.43-2.51,5.43h4.99Z"/>
        <path class="st0" d="M927.96,221.32h-2.83l-6.72-10.57v10.57h-2.83v-15.07h3.24l6.31,9.84v-9.84h2.83v15.07Z"/>
        <path class="st0" d="M945.04,206.26l-6.07,8.89v6.18h-2.92v-6.22l-5.75-8.86h3.35l3.87,6.33,4.04-6.33h3.48Z"/>
        <path class="st0" d="M958.8,206.25l-7.21,12.19h7.15v2.88h-12.12l7.38-12.47-7.1.02v-2.62h11.9Z"/>
        <path class="st0" d="M976.62,221.32h-3.17l-1.38-3.01h-7.23l-1.4,3.01h-3.17l7.04-15.07h2.25l7.04,15.07ZM970.94,215.87l-2.48-5.43-2.51,5.43h4.99Z"/>
        <path class="st0" d="M986.66,208.86h-4.12v12.46h-2.92v-12.46h-4.12v-2.6h11.16v2.6Z"/>
      </g>
    </g>
  </g>
  <g>
    <path class="st0" d="M699.02,159.94c.6-.25,1.12-.59,1.56-1.02.44-.43.79-.95,1.05-1.54.26-.59.39-1.23.39-1.91s-.13-1.32-.39-1.9c-.26-.58-.61-1.1-1.05-1.53-.44-.43-.97-.77-1.57-1.01-.6-.24-1.24-.37-1.91-.37h-5.17v14.57h2.44v-4.92h2.73c.67,0,1.31-.12,1.91-.37ZM694.37,158.55v-6.18h2.18c.42,0,.82.08,1.19.25.36.16.69.38.96.65.27.27.49.6.64.96.16.37.24.77.24,1.19s-.08.82-.24,1.2c-.16.37-.37.7-.64.99-.27.29-.6.52-.96.68-.37.17-.77.26-1.19.26h-2.18Z"/>
    <polygon class="st0" points="714.59 152.58 714.59 150.65 705.12 150.65 705.12 165.23 714.59 165.23 714.59 163.17 707.5 163.17 707.5 158.54 714.5 158.54 714.5 156.67 707.5 156.67 707.5 152.58 714.59 152.58"/>
    <path class="st0" d="M728.77,151.14c-1.04-.52-2.19-.78-3.44-.78-1.08,0-2.11.2-3.06.58-.95.39-1.78.93-2.48,1.62-.7.68-1.26,1.5-1.66,2.41-.4.91-.61,1.91-.61,2.96s.2,2.05.61,2.96c.4.92.96,1.72,1.66,2.4.7.68,1.54,1.22,2.48,1.62.95.39,1.98.59,3.05.59,1.25,0,2.41-.26,3.44-.78.97-.49,1.82-1.15,2.52-1.96l-1.68-1.73c-.47.61-1.04,1.11-1.69,1.5-.75.44-1.62.67-2.59.67-.73,0-1.44-.14-2.08-.43-.65-.28-1.22-.67-1.7-1.14-.48-.48-.87-1.04-1.15-1.68-.28-.64-.42-1.32-.42-2.03s.14-1.41.42-2.05c.28-.63.67-1.2,1.15-1.68s1.06-.86,1.7-1.14c.65-.28,1.35-.43,2.08-.43.92,0,1.77.22,2.54.64.68.38,1.25.86,1.71,1.45l1.66-1.71c-.67-.76-1.5-1.4-2.47-1.88Z"/>
    <path class="st0" d="M735.86,165.05c.44.16.92.27,1.42.35.51.07,1.09.11,1.73.11.69,0,1.34-.11,1.91-.33.57-.22,1.07-.52,1.49-.89.41-.36.74-.79.97-1.27.23-.47.34-.98.34-1.51,0-.56-.08-1.07-.23-1.51-.15-.44-.39-.84-.71-1.19-.32-.36-.75-.69-1.26-.99-.52-.3-1.16-.59-1.9-.85-.61-.22-1.1-.42-1.5-.6-.41-.19-.74-.38-1-.57-.27-.2-.46-.42-.58-.65-.12-.23-.18-.49-.18-.76,0-.25.06-.5.19-.73.12-.22.29-.42.48-.58.2-.16.43-.29.7-.39.27-.1.57-.15.88-.15.66,0,1.24.1,1.73.31.42.18.81.42,1.16.73l1.69-1.71c-.55-.47-1.17-.84-1.85-1.1-.76-.29-1.71-.44-2.83-.44-.66,0-1.28.1-1.85.31s-1.07.49-1.49.85c-.42.36-.75.8-.99,1.31-.24.51-.36,1.07-.36,1.67s.11,1.18.33,1.63c.22.46.51.87.87,1.21.36.35.79.65,1.28.89.49.25,1.02.48,1.57.68.63.23,1.15.43,1.56.62.42.19.75.38.99.57.25.2.44.41.54.63.1.22.16.47.16.74s-.06.51-.19.74c-.12.22-.29.41-.5.56-.2.15-.44.28-.71.37-.27.09-.56.13-.86.13-.7,0-1.36-.11-1.97-.33-.54-.2-1.11-.52-1.67-.97l-1.73,1.74c.37.29.73.54,1.07.75.4.25.83.45,1.27.61Z"/>
    <rect class="st0" x="747.03" y="150.65" width="2.44" height="14.57"/>
    <polygon class="st0" points="770.08 150.65 759.28 150.65 759.28 152.77 763.44 152.77 763.44 165.23 765.92 165.23 765.92 152.77 770.08 152.77 770.08 150.65"/>
    <path class="st0" d="M774.77,163.52c.56.61,1.25,1.09,2.04,1.44.79.35,1.7.53,2.69.53s1.93-.18,2.72-.53c.79-.35,1.46-.85,2.01-1.47.55-.62.97-1.36,1.26-2.19.29-.84.44-1.75.44-2.73v-7.94h-2.47v8.09c0,.62-.08,1.21-.25,1.73-.17.53-.42,1-.74,1.39-.33.4-.75.71-1.26.93-.5.22-1.09.33-1.77.33-.64,0-1.21-.12-1.71-.35-.5-.23-.92-.56-1.26-.96-.33-.4-.59-.88-.76-1.41-.17-.53-.26-1.1-.26-1.7v-8.05h-2.44v8.03c0,.96.15,1.87.46,2.7.3.82.74,1.55,1.3,2.16Z"/>
    <path class="st0" d="M802.02,160.77c.34-.88.51-1.83.51-2.84s-.17-1.95-.51-2.83c-.34-.88-.82-1.66-1.42-2.32-.6-.65-1.34-1.18-2.18-1.56-.84-.39-1.76-.58-2.75-.58h-6.05v14.59h6.05c.99,0,1.92-.19,2.75-.57.84-.38,1.57-.91,2.17-1.56.6-.66,1.08-1.44,1.42-2.32ZM799.68,159.98c-.24.65-.59,1.22-1.04,1.7-.45.48-1,.86-1.64,1.13-.64.27-1.36.41-2.16.41h-2.79v-10.77h2.79c.81,0,1.55.14,2.2.43.65.28,1.21.68,1.66,1.17.45.49.79,1.07,1.03,1.73.24.65.35,1.35.33,2.08-.01.77-.14,1.48-.38,2.12Z"/>
    <path class="st0" d="M818.68,163.3c.7-.68,1.26-1.49,1.67-2.41.4-.92.61-1.91.61-2.96s-.21-2.05-.61-2.96c-.41-.92-.97-1.73-1.67-2.41-.7-.69-1.53-1.23-2.46-1.62-.93-.39-1.94-.58-2.99-.58s-2.06.2-3,.58c-.94.39-1.77.93-2.48,1.61-.7.68-1.26,1.49-1.67,2.41-.4.92-.61,1.92-.61,2.97s.21,2.05.61,2.96c.41.92.97,1.73,1.67,2.4.71.68,1.54,1.22,2.48,1.62,1.88.79,4.13.79,5.99,0,.93-.39,1.76-.94,2.47-1.62ZM813.22,163.22c-.74,0-1.44-.14-2.08-.43-.64-.28-1.21-.67-1.69-1.14-.48-.48-.86-1.05-1.14-1.69-.28-.64-.42-1.33-.42-2.04s.14-1.41.42-2.05c.27-.63.66-1.2,1.14-1.68.48-.48,1.05-.86,1.69-1.14,1.28-.56,2.84-.57,4.14,0,.64.28,1.21.67,1.69,1.14.48.48.86,1.04,1.14,1.68.28.64.42,1.33.42,2.05s-.14,1.39-.42,2.04c-.28.64-.66,1.21-1.14,1.69-.48.48-1.05.86-1.69,1.14-.64.28-1.34.43-2.06.43Z"/>
    <polygon class="st0" points="836.65 154.52 836.65 165.23 839.03 165.23 839.03 150.64 836.23 150.64 831.71 158.36 827.39 150.64 824.48 150.64 824.48 165.23 826.86 165.23 826.86 154.41 831.67 162.93 836.65 154.52"/>
    <path class="st0" d="M853.62,162.21l1.39,3.01h2.67l-6.9-14.59h-1.97l-6.89,14.59h2.67l1.41-3.01h7.62ZM849.81,154.02l2.88,6.24h-5.81l2.93-6.24Z"/>
    <polygon class="st0" points="872.61 165.23 872.61 150.64 870.23 150.64 870.23 161.05 863.47 150.64 860.56 150.64 860.56 165.23 862.94 165.23 862.94 154.07 870.12 165.23 872.61 165.23"/>
    <polygon class="st0" points="886.74 150.65 882.52 157.2 878.47 150.65 875.66 150.65 881.27 159.2 881.27 165.24 883.75 165.24 883.75 159.23 889.67 150.65 886.74 150.65"/>
    <polygon class="st0" points="902.2 152.58 902.2 150.65 892.73 150.65 892.73 165.23 902.2 165.23 902.2 163.17 895.11 163.17 895.11 158.54 902.1 158.54 902.1 156.67 895.11 156.67 895.11 152.58 902.2 152.58"/>
    <path class="st0" d="M916.4,151.12c-1.02-.51-2.17-.77-3.42-.77-1.08,0-2.11.2-3.05.59-.95.39-1.79.94-2.5,1.62-.71.68-1.27,1.49-1.68,2.4-.41.91-.61,1.9-.61,2.94s.21,2.07.62,2.99c.41.92.98,1.73,1.68,2.41.7.68,1.54,1.22,2.49,1.61,1.42.58,3.05.76,4.71.41.55-.12,1.1-.3,1.62-.54.53-.24,1.04-.55,1.53-.92.47-.36.9-.78,1.3-1.26v-4.7h-5.41v2h3.09v1.8l-.08.07c-.49.43-1.06.78-1.68,1.04-1.29.54-2.84.52-4.12-.02-.65-.28-1.23-.66-1.72-1.14-.49-.49-.88-1.05-1.16-1.69-.28-.63-.42-1.33-.42-2.07s.14-1.41.42-2.05c.28-.63.67-1.2,1.16-1.68.49-.48,1.07-.86,1.72-1.13.66-.28,1.36-.42,2.11-.42.9,0,1.72.18,2.46.52.66.31,1.27.82,1.82,1.5l1.62-1.66c-.69-.77-1.52-1.41-2.48-1.88Z"/>
    <polygon class="st0" points="931.78 150.65 927.55 157.2 923.5 150.65 920.69 150.65 926.31 159.2 926.31 165.24 928.78 165.24 928.78 159.23 934.71 150.65 931.78 150.65"/>
    <polygon class="st0" points="947.23 152.58 947.23 150.65 937.77 150.65 937.77 165.23 947.23 165.23 947.23 163.17 940.15 163.17 940.15 158.54 947.14 158.54 947.14 156.67 940.15 156.67 940.15 152.58 947.23 152.58"/>
    <polygon class="st0" points="960.59 150.65 949.79 150.65 949.79 152.77 953.95 152.77 953.95 165.23 956.43 165.23 956.43 152.77 960.59 152.77 960.59 150.65"/>
    <polygon class="st0" points="973.18 152.58 973.18 150.65 963.71 150.65 963.71 165.23 973.18 165.23 973.18 163.17 966.09 163.17 966.09 158.54 973.09 158.54 973.09 156.67 966.09 156.67 966.09 152.58 973.18 152.58"/>
    <polygon class="st0" points="988.85 154.52 988.85 165.23 991.23 165.23 991.23 150.64 988.43 150.64 983.91 158.36 979.59 150.64 976.68 150.64 976.68 165.23 979.06 165.23 979.06 154.41 983.87 162.93 988.85 154.52"/>
    <path class="st0" d="M681.83,164.75c-1.36.62-2.85.18-3.86-.86l-3.05,2.71c-.48,0-2.27-2.44-2.77-2.57-.42-.11-.92.53-1.37.71-.51.21-2.23.53-2.57.04-.38-.55.02-2.3.33-2.89.18-.34.66-.4.5-.97-.13-.48-2.64-2.43-2.71-2.79l2.71-2.9c.08-.33-.72-1.18-.86-1.68-.18-.67-.04-1.47-.02-2.16,1.46-.47,2.7,0,3.85.89l3.05-2.72,2.79,2.71h.24c.5-.92,3.56-1.63,3.76-.52.24,1.31-.3,2.46-1.06,3.48l2.72,2.78-2.71,3.05c.89,1.14,1.24,2.22,1.02,3.68ZM678.5,154.73h-7.01v6.7h7.01v-6.7Z"/>
    <polygon class="st0" points="850.95 149.19 853.3 146.04 850.92 146.04 849.45 149.19 850.95 149.19"/>
    <polygon class="st0" points="711.41 149.19 713.76 146.04 711.39 146.04 709.91 149.19 711.41 149.19"/>
  </g>
  <polygon class="st0" points="909.05 201.27 906.37 204.91 904.4 204.91 906.07 201.27 909.05 201.27"/>
</svg>