<?xml version="1.0" encoding="UTF-8"?>
<svg id="Layer_1" xmlns="http://www.w3.org/2000/svg" version="1.1" viewBox="0 0 368.19 368.19">
  <!-- Generator: Adobe Illustrator 30.2.1, SVG Export Plug-In . SVG Version: 2.1.1 Build 1)  -->
  <defs>
    <style>
      .st0 {
        fill: #818b94;
      }

      .st1 {
        fill: #021d49;
      }
    </style>
  </defs>
  <circle class="st0" cx="197.16" cy="157.08" r="5.17"/>
  <path class="st1" d="M182.72,205.51c-10.74,0-19.47-8.74-19.47-19.47v-9.76c-.01-8.44-6.88-15.31-15.31-15.31-4.09,0-7.93,1.59-10.82,4.48-1.76,1.76-4.61,1.76-6.36,0-1.76-1.76-1.76-4.61,0-6.36,4.59-4.59,10.69-7.12,17.18-7.12,13.4,0,24.3,10.9,24.3,24.3v9.76c.01,5.78,4.71,10.48,10.48,10.48s10.47-4.7,10.47-10.47v-12.1c0-2.49,2.01-4.5,4.5-4.5s4.5,2.01,4.5,4.5v12.1c0,10.74-8.73,19.47-19.47,19.47Z"/>
  <circle class="st0" cx="99.2" cy="177.09" r="5.17"/>
  <path class="st1" d="M119.15,205.9c-2.49,0-4.5-2.01-4.5-4.5v-25.54c0-8.52-6.93-15.45-15.45-15.45s-15.45,6.93-15.45,15.45v25.52c-.02,2.48-2.03,4.5-4.51,4.5h0c-2.49,0-4.5-2.02-4.5-4.5v-25.52c.01-13.48,10.98-24.45,24.47-24.45s24.45,10.97,24.45,24.45v25.54c0,2.49-2.01,4.5-4.5,4.5Z"/>
  <path class="st1" d="M219.08,205.19c-.58,0-1.17-.1-1.74-.29-2.12-.74-3.55-2.75-3.55-4.99v-41.67c0-2.49,2.01-4.5,4.5-4.5s4.5,2.01,4.5,4.5v30.99l26.22-33.17c1.54-1.95,4.37-2.28,6.32-.74,1.95,1.54,2.28,4.37.74,6.32l-32.85,41.56c-1.03,1.29-2.57,2.01-4.15,2.01Z"/>
  <path class="st0" d="M255.2,204.73c-1.13,0-2.25-.42-3.13-1.26l-9.81-9.48c-1.79-1.73-1.84-4.58-.11-6.36,1.73-1.79,4.58-1.84,6.36-.11l9.81,9.48c1.79,1.73,1.84,4.58.11,6.36-.88.91-2.06,1.37-3.24,1.37Z"/>
</svg>