<?xml version="1.0" encoding="UTF-8"?>
<svg id="Layer_1" xmlns="http://www.w3.org/2000/svg" version="1.1" viewBox="0 0 368.19 368.19">
  <!-- Generator: Adobe Illustrator 30.2.1, SVG Export Plug-In . SVG Version: 2.1.1 Build 1)  -->
  <defs>
    <style>
      .st0 {
        fill: #fff;
      }
    </style>
  </defs>
  <path class="st0" d="M207.16,152.41h-.01c-2.57,0-4.66,2.11-4.66,4.68,0,1.25.49,2.42,1.38,3.3.88.88,2.04,1.36,3.31,1.36,1.25,0,2.42-.49,3.3-1.38.88-.88,1.36-2.06,1.36-3.31,0-1.25-.49-2.42-1.38-3.3-.88-.88-2.05-1.36-3.29-1.36Z"/>
  <path class="st0" d="M211.69,173.94c0-2.21-1.79-4-4-4s-4,1.79-4,4v12.1c0,6.05-4.92,10.97-10.97,10.97s-10.97-4.93-10.97-10.98v-9.76c-.01-13.12-10.69-23.8-23.81-23.8-6.36,0-12.33,2.48-16.83,6.97-.75.76-1.17,1.76-1.17,2.83s.42,2.07,1.17,2.83c1.56,1.56,4.1,1.56,5.66,0,2.98-2.98,6.95-4.63,11.17-4.63,8.71,0,15.8,7.09,15.8,15.81v9.76c.01,10.46,8.52,18.97,18.98,18.97s18.97-8.51,18.97-18.97v-12.1Z"/>
  <path class="st0" d="M104.53,177.11c0,2.57,2.1,4.66,4.67,4.66h.01c2.57,0,4.66-2.11,4.66-4.68,0-1.25-.49-2.42-1.38-3.3-.88-.88-2.05-1.36-3.29-1.36h-.01c-1.25,0-2.42.49-3.3,1.38-.88.88-1.36,2.06-1.36,3.31Z"/>
  <path class="st0" d="M133.15,175.86c0-13.21-10.75-23.95-23.95-23.95s-23.95,10.74-23.95,23.95v25.52c-.02,1.07.4,2.07,1.16,2.83s1.76,1.17,2.83,1.17c2.21,0,4-1.79,4-4v-25.52c.01-8.8,7.17-15.95,15.97-15.95s15.95,7.16,15.95,15.95v25.54c0,2.21,1.79,4,4,4s4-1.79,4-4v-25.54Z"/>
  <path class="st0" d="M224.29,199.9c0,2.03,1.29,3.85,3.21,4.52,1.9.66,4.08.03,5.33-1.55l32.85-41.56c.66-.84.96-1.88.83-2.95-.12-1.06-.65-2.01-1.49-2.67-1.73-1.37-4.25-1.07-5.62.66l-27.11,34.3v-32.42c0-2.21-1.79-4-4-4s-4,1.79-4,4v41.67Z"/>
  <path class="st0" d="M267.98,197.36l-9.81-9.48c-.78-.75-1.78-1.12-2.78-1.12s-2.09.41-2.88,1.22c-.74.77-1.14,1.78-1.12,2.85.02,1.07.45,2.07,1.22,2.81l9.81,9.48c.75.72,1.74,1.12,2.78,1.12,1.09,0,2.12-.43,2.88-1.22.74-.77,1.14-1.78,1.12-2.85-.02-1.07-.45-2.07-1.22-2.81Z"/>
</svg>