<?xml version="1.0" encoding="UTF-8"?>
<svg id="Layer_1" xmlns="http://www.w3.org/2000/svg" version="1.1" viewBox="0 0 368.19 368.19">
  <!-- Generator: Adobe Illustrator 30.2.1, SVG Export Plug-In . SVG Version: 2.1.1 Build 1)  -->
  <defs>
    <style>
      .st0, .st1 {
        fill: #fff;
      }

      .st1 {
        stroke: #fff;
        stroke-miterlimit: 10;
        stroke-width: .12px;
      }
    </style>
  </defs>
  <path class="st0" d="M264.23,182.31c.69.81,1.65,1.3,2.7,1.39,1.06.09,2.08-.25,2.89-.93,1.67-1.42,1.87-3.93.45-5.59-.78-.92-1.9-1.4-3.03-1.4-.91,0-1.82.31-2.57.94-.81.69-1.3,1.65-1.39,2.7-.09,1.06.25,2.08.93,2.89Z"/>
  <g>
    <path class="st1" d="M289.2,186.22h-2.6v-5.93h-5.28v5.93h-2.6v-13.39h2.6v5.31h5.28v-5.31h2.6v13.39Z"/>
    <path class="st1" d="M306.09,179.52c0,.96-.19,1.87-.56,2.71-.37.85-.88,1.59-1.53,2.21-.65.63-1.4,1.12-2.26,1.48-.86.36-1.77.54-2.75.54s-1.89-.18-2.75-.54c-.87-.36-1.62-.86-2.27-1.48s-1.16-1.36-1.53-2.2c-.37-.84-.56-1.75-.56-2.72s.19-1.88.56-2.73c.37-.85.88-1.59,1.53-2.21.65-.62,1.4-1.12,2.27-1.47.86-.36,1.78-.54,2.75-.54s1.89.18,2.75.54,1.61.85,2.26,1.48c.65.63,1.16,1.37,1.53,2.21.37.84.56,1.75.56,2.72ZM303.5,179.52c0-.61-.12-1.19-.35-1.73s-.56-1.02-.96-1.42c-.41-.41-.89-.73-1.44-.97-.55-.24-1.13-.36-1.75-.36s-1.21.12-1.76.36c-.55.24-1.03.56-1.44.97-.41.41-.73.88-.97,1.42-.23.54-.35,1.12-.35,1.73s.12,1.18.35,1.73c.24.55.56,1.03.97,1.43.41.41.89.73,1.44.97.55.24,1.14.36,1.76.36s1.2-.12,1.75-.36c.55-.24,1.03-.56,1.44-.97.41-.41.73-.89.96-1.43.24-.55.35-1.12.35-1.73ZM298.1,171.63h-2.18v-2.18h2.18v2.18ZM301.95,171.63h-2.18v-2.18h2.18v2.18Z"/>
    <path class="st1" d="M320.13,186.22h-3.38l-5.36-5.93v5.93h-2.6v-13.41h2.6v5.98l5.48-5.98h3.08l-6.05,6.59,6.23,6.82Z"/>
  </g>
  <g>
    <path class="st0" d="M196.9,152.3h-.01c-2.57,0-4.66,2.11-4.66,4.68,0,1.25.49,2.42,1.38,3.3.88.88,2.04,1.36,3.31,1.36,1.25,0,2.42-.49,3.3-1.38.88-.88,1.36-2.06,1.36-3.31,0-1.25-.49-2.42-1.38-3.3-.88-.88-2.05-1.36-3.29-1.36Z"/>
    <path class="st0" d="M201.42,173.83c0-2.21-1.79-4-4-4s-4,1.79-4,4v12.1c0,6.05-4.92,10.97-10.97,10.97s-10.97-4.93-10.97-10.98v-9.76c-.01-13.12-10.69-23.8-23.81-23.8-6.36,0-12.33,2.48-16.83,6.97-.75.76-1.17,1.76-1.17,2.83s.42,2.07,1.17,2.83c1.56,1.56,4.1,1.56,5.66,0,2.98-2.98,6.95-4.63,11.17-4.63,8.71,0,15.8,7.09,15.8,15.81v9.76c.01,10.46,8.52,18.97,18.98,18.97s18.97-8.51,18.97-18.97v-12.1Z"/>
    <path class="st0" d="M94.27,177c0,2.57,2.1,4.66,4.67,4.66h.01c2.57,0,4.66-2.11,4.66-4.68,0-1.25-.49-2.42-1.38-3.3-.88-.88-2.05-1.36-3.29-1.36h-.01c-1.25,0-2.42.49-3.3,1.38-.88.88-1.36,2.06-1.36,3.31Z"/>
    <path class="st0" d="M122.89,175.75c0-13.21-10.75-23.95-23.95-23.95s-23.95,10.74-23.95,23.95v25.52c-.02,1.07.4,2.07,1.16,2.83s1.76,1.17,2.83,1.17c2.21,0,4-1.79,4-4v-25.52c.01-8.8,7.17-15.95,15.97-15.95s15.95,7.16,15.95,15.95v25.54c0,2.21,1.79,4,4,4s4-1.79,4-4v-25.54Z"/>
    <path class="st0" d="M214.03,199.79c0,2.03,1.29,3.85,3.21,4.52,1.9.66,4.08.03,5.33-1.55l32.85-41.56c.66-.84.96-1.88.83-2.95-.12-1.06-.65-2.01-1.49-2.67-1.73-1.37-4.25-1.07-5.62.66l-27.11,34.3v-32.42c0-2.21-1.79-4-4-4s-4,1.79-4,4v41.67Z"/>
    <path class="st0" d="M257.72,197.25l-9.81-9.48c-.78-.75-1.78-1.12-2.78-1.12s-2.09.41-2.88,1.22c-.74.77-1.14,1.78-1.12,2.85.02,1.07.45,2.07,1.22,2.81l9.81,9.48c.75.72,1.74,1.12,2.78,1.12,1.09,0,2.12-.43,2.88-1.22.74-.77,1.14-1.78,1.12-2.85-.02-1.07-.45-2.07-1.22-2.81Z"/>
  </g>
</svg>