<?xml version="1.0" encoding="UTF-8"?>
<svg id="Layer_1" xmlns="http://www.w3.org/2000/svg" version="1.1" viewBox="0 0 368.19 368.19">
  <!-- Generator: Adobe Illustrator 30.2.1, SVG Export Plug-In . SVG Version: 2.1.1 Build 1)  -->
  <defs>
    <style>
      .st0 {
        fill: #231f20;
      }

      .st1 {
        fill: #fff;
      }
    </style>
  </defs>
  <rect class="st1" x="0" width="368.19" height="368.19"/>
  <g>
    <circle class="st0" cx="197.16" cy="157.08" r="5.17"/>
    <path class="st0" d="M182.72,205.51c-10.74,0-19.47-8.74-19.47-19.47v-9.76c-.01-8.44-6.88-15.31-15.31-15.31-4.09,0-7.93,1.59-10.82,4.48-1.76,1.76-4.61,1.76-6.36,0-1.76-1.76-1.76-4.61,0-6.36,4.59-4.59,10.69-7.12,17.18-7.12,13.4,0,24.3,10.9,24.3,24.3v9.76c.01,5.78,4.71,10.48,10.48,10.48s10.47-4.7,10.47-10.47v-12.1c0-2.49,2.01-4.5,4.5-4.5s4.5,2.01,4.5,4.5v12.1c0,10.74-8.73,19.47-19.47,19.47Z"/>
    <circle class="st0" cx="99.2" cy="177.09" r="5.17"/>
    <path class="st0" d="M119.15,205.9c-2.49,0-4.5-2.01-4.5-4.5v-25.54c0-8.52-6.93-15.45-15.45-15.45s-15.45,6.93-15.45,15.45v25.52c-.02,2.48-2.03,4.5-4.51,4.5h0c-2.49,0-4.5-2.02-4.5-4.5v-25.52c.01-13.48,10.98-24.45,24.47-24.45s24.45,10.97,24.45,24.45v25.54c0,2.49-2.01,4.5-4.5,4.5Z"/>
    <path class="st0" d="M219.07,205.19c-.58,0-1.17-.1-1.74-.29-2.12-.74-3.54-2.75-3.54-4.99v-41.67c0-2.49,2.01-4.5,4.5-4.5s4.5,2.01,4.5,4.5v30.99l26.22-33.17c1.54-1.95,4.37-2.28,6.32-.74,1.95,1.54,2.28,4.37.74,6.32l-32.85,41.56c-1.03,1.29-2.57,2.01-4.15,2.01Z"/>
    <path class="st0" d="M255.2,204.73c-1.13,0-2.25-.42-3.13-1.26l-9.81-9.48c-1.79-1.73-1.84-4.58-.11-6.36,1.73-1.79,4.58-1.84,6.36-.11l9.81,9.48c1.79,1.73,1.84,4.58.11,6.36-.88.91-2.06,1.37-3.24,1.37Z"/>
    <circle class="st0" cx="267.26" cy="179.74" r="4.47"/>
    <g>
      <g>
        <path class="st0" d="M289.2,186.22h-2.6v-5.93h-5.28v5.93h-2.6v-13.39h2.6v5.31h5.28v-5.31h2.6v13.39Z"/>
        <path class="st0" d="M289.26,186.28h-2.71v-5.93h-5.16v5.93h-2.71v-13.51h2.71v5.31h5.16v-5.31h2.71v13.51ZM286.66,186.16h2.48v-13.27h-2.48v5.31h-5.4v-5.31h-2.48v13.27h2.48v-5.93h5.4v5.93Z"/>
      </g>
      <g>
        <path class="st0" d="M306.09,179.52c0,.96-.19,1.87-.56,2.71-.37.85-.88,1.59-1.53,2.21-.65.63-1.4,1.12-2.26,1.48s-1.77.54-2.75.54-1.89-.18-2.75-.54c-.87-.36-1.62-.86-2.27-1.48-.65-.62-1.16-1.36-1.53-2.2s-.56-1.75-.56-2.72.19-1.88.56-2.73c.37-.85.88-1.59,1.53-2.21.65-.63,1.4-1.12,2.27-1.47.86-.36,1.78-.54,2.75-.54s1.89.18,2.75.54,1.61.85,2.26,1.48c.65.63,1.16,1.37,1.53,2.21.37.84.56,1.75.56,2.72ZM303.5,179.52c0-.61-.12-1.19-.35-1.73s-.56-1.02-.96-1.42c-.41-.41-.89-.73-1.44-.97-.55-.24-1.13-.36-1.75-.36s-1.21.12-1.76.36c-.55.24-1.03.56-1.44.97-.41.41-.73.88-.97,1.42-.23.54-.35,1.12-.35,1.73s.12,1.18.35,1.73c.24.55.56,1.03.97,1.43.41.41.89.73,1.44.97.55.24,1.14.36,1.76.36s1.2-.12,1.75-.36c.55-.24,1.03-.56,1.44-.97.41-.41.73-.88.96-1.43.24-.55.35-1.12.35-1.73ZM298.1,171.63h-2.18v-2.18h2.18v2.18ZM301.95,171.63h-2.18v-2.18h2.18v2.18Z"/>
        <path class="st0" d="M299,186.53c-.97,0-1.91-.19-2.78-.55-.87-.36-1.64-.87-2.29-1.5-.65-.63-1.17-1.37-1.54-2.22-.38-.85-.57-1.77-.57-2.75s.19-1.9.57-2.75c.38-.85.9-1.6,1.54-2.23.65-.63,1.42-1.13,2.29-1.49.87-.36,1.8-.54,2.78-.54s1.9.18,2.77.54c.86.36,1.63.86,2.28,1.49.65.63,1.17,1.38,1.54,2.23.38.85.57,1.77.57,2.75s-.19,1.88-.57,2.74c-.38.85-.9,1.6-1.54,2.23-.65.63-1.41,1.13-2.28,1.5-.86.36-1.79.55-2.77.55ZM299,172.62c-.96,0-1.88.18-2.73.53-.85.35-1.61.85-2.25,1.46-.64.62-1.15,1.35-1.52,2.19-.37.84-.56,1.75-.56,2.71s.19,1.87.56,2.7c.37.83.88,1.57,1.52,2.18.64.62,1.4,1.11,2.25,1.47.85.36,1.77.54,2.73.54s1.87-.18,2.72-.54c.85-.36,1.6-.85,2.24-1.47.64-.62,1.15-1.35,1.52-2.19.37-.84.56-1.74.56-2.69s-.19-1.87-.56-2.7c-.37-.83-.88-1.57-1.52-2.19-.64-.62-1.39-1.12-2.24-1.47-.85-.35-1.76-.53-2.72-.53ZM299,184.07c-.63,0-1.23-.12-1.79-.37-.55-.24-1.04-.57-1.45-.98-.41-.41-.74-.9-.98-1.45-.24-.55-.36-1.14-.36-1.75s.12-1.21.36-1.76c.24-.54.57-1.03.98-1.44.41-.41.9-.74,1.45-.98.55-.24,1.15-.37,1.79-.37s1.22.12,1.77.37c.55.24,1.04.57,1.45.98.41.41.74.9.98,1.44.24.55.36,1.14.36,1.76s-.12,1.2-.36,1.75c-.24.55-.57,1.04-.98,1.45s-.9.74-1.45.98c-.55.24-1.15.37-1.77.37ZM299,175.09c-.62,0-1.2.12-1.74.36-.54.24-1.02.56-1.42.96-.4.4-.72.88-.95,1.41s-.35,1.11-.35,1.71.12,1.17.35,1.7c.23.54.55,1.01.95,1.42.4.4.88.72,1.42.96.54.24,1.12.36,1.74.36s1.18-.12,1.72-.36c.54-.24,1.02-.56,1.42-.96.4-.4.72-.88.95-1.42.23-.54.35-1.11.35-1.7s-.12-1.18-.35-1.71c-.23-.53-.55-1.01-.95-1.41-.4-.4-.88-.72-1.42-.96-.54-.24-1.12-.36-1.72-.36ZM302.01,171.69h-2.29v-2.3h2.29v2.3ZM299.83,171.57h2.06v-2.06h-2.06v2.06ZM298.16,171.69h-2.29v-2.3h2.29v2.3ZM295.98,171.57h2.06v-2.06h-2.06v2.06Z"/>
      </g>
      <g>
        <path class="st0" d="M320.13,186.22h-3.38l-5.36-5.93v5.93h-2.6v-13.41h2.6v5.98l5.48-5.98h3.08l-6.05,6.58,6.23,6.82Z"/>
        <path class="st0" d="M320.27,186.28h-3.54l-.02-.02-5.26-5.82v5.84h-2.71v-13.52h2.71v5.89l5.4-5.89h3.24l-6.1,6.64,6.29,6.88ZM316.78,186.16h3.23l-6.18-6.76.04-.04,5.96-6.49h-2.93l-5.56,6.07v-6.07h-2.48v13.29h2.48v-6.02l5.45,6.02Z"/>
      </g>
    </g>
  </g>
</svg>