<?xml version="1.0" encoding="UTF-8"?>
<svg id="Layer_1" xmlns="http://www.w3.org/2000/svg" version="1.1" viewBox="0 0 368.19 368.19">
  <!-- Generator: Adobe Illustrator 30.2.1, SVG Export Plug-In . SVG Version: 2.1.1 Build 1)  -->
  <defs>
    <style>
      .st0 {
        stroke: #021d49;
        stroke-miterlimit: 10;
        stroke-width: .12px;
      }

      .st0, .st1 {
        fill: #021d49;
      }

      .st2 {
        fill: #818b94;
      }

      .st3 {
        fill: #fff;
      }
    </style>
  </defs>
  <rect class="st3" width="368.19" height="368.19"/>
  <g>
    <circle class="st2" cx="197.16" cy="147.42" r="5.17"/>
    <path class="st1" d="M182.72,195.86c-10.74,0-19.47-8.74-19.47-19.47v-9.76c-.01-8.44-6.88-15.31-15.31-15.31-4.09,0-7.93,1.59-10.82,4.48-1.76,1.76-4.61,1.76-6.36,0-1.76-1.76-1.76-4.61,0-6.36,4.59-4.59,10.69-7.12,17.18-7.12,13.4,0,24.3,10.9,24.3,24.3v9.76c.01,5.78,4.71,10.48,10.48,10.48s10.47-4.7,10.47-10.47v-12.1c0-2.49,2.01-4.5,4.5-4.5s4.5,2.01,4.5,4.5v12.1c0,10.74-8.73,19.47-19.47,19.47Z"/>
    <circle class="st2" cx="99.2" cy="167.44" r="5.17"/>
    <path class="st1" d="M119.15,196.24c-2.49,0-4.5-2.01-4.5-4.5v-25.54c0-8.52-6.93-15.45-15.45-15.45s-15.45,6.93-15.45,15.45v25.52c-.02,2.48-2.03,4.5-4.51,4.5h0c-2.49,0-4.5-2.02-4.5-4.5v-25.52c.01-13.48,10.98-24.45,24.47-24.45s24.45,10.97,24.45,24.45v25.54c0,2.49-2.01,4.5-4.5,4.5Z"/>
    <path class="st2" d="M219.08,195.53c-.58,0-1.17-.1-1.74-.29-2.12-.74-3.55-2.75-3.55-4.99v-41.67c0-2.49,2.01-4.5,4.5-4.5s4.5,2.01,4.5,4.5v30.99l26.22-33.17c1.54-1.95,4.37-2.28,6.32-.74,1.95,1.54,2.28,4.37.74,6.32l-32.85,41.56c-1.03,1.29-2.57,2.01-4.15,2.01Z"/>
    <path class="st1" d="M255.2,195.08c-1.13,0-2.25-.42-3.13-1.26l-9.81-9.48c-1.79-1.73-1.84-4.58-.11-6.36,1.73-1.79,4.58-1.84,6.36-.11l9.81,9.48c1.79,1.73,1.84,4.58.11,6.36-.88.91-2.06,1.37-3.24,1.37Z"/>
    <circle class="st1" cx="267.26" cy="170.08" r="4.47"/>
    <g>
      <path class="st0" d="M289.2,176.57h-2.6v-5.93h-5.28v5.93h-2.6v-13.39h2.6v5.31h5.28v-5.31h2.6v13.39Z"/>
      <path class="st0" d="M306.09,169.86c0,.96-.19,1.87-.56,2.71-.37.85-.88,1.59-1.53,2.21-.65.63-1.4,1.12-2.26,1.48s-1.77.54-2.75.54-1.89-.18-2.75-.54c-.87-.36-1.62-.86-2.27-1.48-.65-.62-1.16-1.36-1.53-2.2s-.56-1.75-.56-2.72.19-1.88.56-2.73c.37-.85.88-1.59,1.53-2.21.65-.63,1.4-1.12,2.27-1.47.86-.36,1.78-.54,2.75-.54s1.89.18,2.75.54,1.61.85,2.26,1.48c.65.63,1.16,1.37,1.53,2.21.37.84.56,1.75.56,2.72ZM303.5,169.86c0-.61-.12-1.19-.35-1.73s-.56-1.02-.96-1.42c-.41-.41-.89-.73-1.44-.97-.55-.24-1.13-.36-1.75-.36s-1.21.12-1.76.36c-.55.24-1.03.56-1.44.97-.41.41-.73.88-.97,1.42-.23.54-.35,1.12-.35,1.73s.12,1.18.35,1.73c.24.55.56,1.03.97,1.43.41.41.89.73,1.44.97.55.24,1.14.36,1.76.36s1.2-.12,1.75-.36c.55-.24,1.03-.56,1.44-.97.41-.41.73-.88.96-1.43.24-.55.35-1.12.35-1.73ZM298.1,161.97h-2.18v-2.18h2.18v2.18ZM301.95,161.97h-2.18v-2.18h2.18v2.18Z"/>
      <path class="st0" d="M320.13,176.57h-3.38l-5.36-5.93v5.93h-2.6v-13.41h2.6v5.98l5.48-5.98h3.08l-6.05,6.58,6.23,6.82Z"/>
    </g>
  </g>
</svg>